<svg width="87" height="80" viewBox="0 0 87 80" fill="none" xmlns="http://www.w3.org/2000/svg">
<rect width="87" height="79.9957" fill="white"/>
<rect x="8" y="8" width="71" height="63.9957" rx="10" fill="#193CB8"/>
<path d="M43.9952 69.9957H35.9973C34.7598 69.9957 33.7523 68.9888 33.7523 67.7507V62.4589C31.9281 61.9528 30.1794 61.2246 28.5363 60.2878L24.7883 64.0352C23.9383 64.8852 22.4602 64.8846 21.6115 64.0346L15.9599 58.381C15.5349 57.9567 15.3005 57.393 15.3012 56.7929C15.3012 56.1936 15.5356 55.6299 15.9606 55.2061L19.7755 51.3898C18.8799 49.763 18.1887 48.0375 17.7118 46.2413H12.2405C11.005 46.2414 10 45.2351 10 43.997V36.0004C10 34.7623 11.005 33.7549 12.2405 33.7549H17.891C18.4016 32.0412 19.1129 30.3925 20.0128 28.8381L15.9605 24.7858C15.5379 24.3676 15.3029 23.8058 15.3018 23.2071C15.3005 22.6058 15.5343 22.0408 15.9612 21.6147L21.6122 15.9567C22.4678 15.1112 23.9372 15.1124 24.7853 15.953L28.9608 20.1285C30.482 19.3022 32.0882 18.6523 33.7531 18.1892V12.2413C33.7523 11.0049 34.7592 10 35.9973 10H43.9952C45.2333 10 46.2407 11.0049 46.2407 12.2411C46.2407 12.2411 46.2407 15 46.2407 16C46.2407 17.1892 44.3642 17.1892 44.3642 16C44.3642 15.2662 44.3642 12.241 44.3642 12.241C44.3649 12.036 44.2024 11.8748 43.9947 11.8748H35.9968C35.7931 11.8748 35.6268 12.0392 35.6268 12.241V19.6495L34.9105 19.8239C32.9313 20.3052 31.035 21.0713 29.2732 22.1026L28.6488 22.4682L23.4615 17.2808C23.3696 17.1895 23.2572 17.1752 23.199 17.1752C23.1403 17.1752 23.029 17.1895 22.9334 17.284L17.2851 22.9394C17.1896 23.0351 17.1751 23.1444 17.1751 23.2013C17.1751 23.2576 17.189 23.3644 17.2814 23.4556L22.3813 28.5548L21.9876 29.1873C20.8751 30.9742 20.0408 32.9066 19.5064 34.9303L19.3225 35.6284H12.2405C12.0393 35.6297 11.875 35.7952 11.875 36.0002V43.9974C11.875 44.2011 12.0393 44.3668 12.2405 44.3668H19.1916L19.3597 45.0937C19.8447 47.2005 20.6497 49.211 21.7508 51.0697L22.1221 51.6961L17.2859 56.5335C17.1909 56.6285 17.1765 56.7378 17.1765 56.7946C17.1765 56.8515 17.1903 56.9616 17.2852 57.0558L22.9382 62.7108C23.0332 62.8058 23.1432 62.8202 23.2007 62.8202C23.2576 62.8202 23.3681 62.8062 23.4631 62.7108L28.2481 57.9255L28.8787 58.3122C30.7475 59.4603 32.7768 60.3047 34.911 60.8234L35.6273 60.9971V67.7514C35.6273 67.9551 35.7936 68.1212 35.9973 68.1212H43.9952C44.2027 68.1212 44.3657 67.9588 44.3657 67.7514C44.3657 67.7514 44.3657 65.2136 44.3657 64C44.3657 62.6619 46.2407 62.6619 46.2407 64C46.2407 65.3381 46.2407 67.7497 46.2407 67.7497C46.2401 68.9887 45.2333 69.9957 43.9952 69.9957Z" fill="white"/>
<path d="M42 55C37.7565 55 33.6869 53.4723 30.6863 50.753C27.6857 48.0338 26 44.3456 26 40.5C26 36.6544 27.6857 32.9662 30.6863 30.247C33.6869 27.5277 37.7565 26 42 26" stroke="white" stroke-width="2" stroke-linecap="round" stroke-linejoin="round"/>
<path d="M42 49C39.6131 49 37.3239 48.1045 35.636 46.5104C33.9482 44.9163 33 42.7543 33 40.5C33 38.2457 33.9482 36.0837 35.636 34.4896C37.3239 32.8955 39.6131 32 42 32" stroke="white" stroke-width="2" stroke-linecap="round" stroke-linejoin="round"/>
<path d="M66.5 21C68.9853 21 71 18.9853 71 16.5C71 14.0147 68.9853 12 66.5 12C64.0147 12 62 14.0147 62 16.5C62 18.9853 64.0147 21 66.5 21Z" stroke="white" stroke-width="2"/>
<path d="M72.5 36.5C74.9853 36.5 77 34.4853 77 32C77 29.5147 74.9853 27.5 72.5 27.5C70.0147 27.5 68 29.5147 68 32C68 34.4853 70.0147 36.5 72.5 36.5Z" stroke="white" stroke-width="2"/>
<path d="M72.5 53.5C74.9853 53.5 77 51.4853 77 49C77 46.5147 74.9853 44.5 72.5 44.5C70.0147 44.5 68 46.5147 68 49C68 51.4853 70.0147 53.5 72.5 53.5Z" stroke="white" stroke-width="2"/>
<path d="M57.5 45C59.9853 45 62 42.9853 62 40.5C62 38.0147 59.9853 36 57.5 36C55.0147 36 53 38.0147 53 40.5C53 42.9853 55.0147 45 57.5 45Z" stroke="white" stroke-width="2"/>
<path d="M42 32H68" stroke="white" stroke-width="2"/>
<path d="M42 49H68" stroke="white" stroke-width="2"/>
<path d="M48 24.9998C47.4477 24.9998 47 25.4475 47 25.9998C47 26.5521 47.4477 26.9998 48 26.9998V24.9998ZM58.8387 25.9998V26.9998H59.2976L59.5968 26.6519L58.8387 25.9998ZM48 26.9998H58.8387V24.9998H48V26.9998ZM59.5968 26.6519L64.7581 20.6519L63.2419 19.3477L58.0806 25.3477L59.5968 26.6519Z" fill="white"/>
<path d="M66.5 60C68.9853 60 71 62.0147 71 64.5C71 66.9853 68.9853 69 66.5 69C64.0147 69 62 66.9853 62 64.5C62 62.0147 64.0147 60 66.5 60Z" stroke="white" stroke-width="2"/>
<path d="M48 56C47.4477 56 47 55.5523 47 55C47 54.4477 47.4477 54 48 54V56ZM58.8387 55V54H59.2976L59.5968 54.3479L58.8387 55ZM48 54H58.8387V56H48V54ZM59.5968 54.3479L64.7581 60.3479L63.2419 61.6521L58.0806 55.6521L59.5968 54.3479Z" fill="white"/>
<path d="M40 39.5C39.4477 39.5 39 39.9477 39 40.5C39 41.0523 39.4477 41.5 40 41.5V39.5ZM53 39.5H40V41.5H53V39.5Z" fill="white"/>
</svg>
