<svg width="501" height="500" viewBox="0 0 501 500" fill="none" xmlns="http://www.w3.org/2000/svg">
<path d="M210.987 0.438941C207.39 1.57244 204.81 3.83944 203.208 7.27903C202.387 9.03791 202.387 9.46786 202.269 34.1313L202.152 59.1465L198.165 60.28C182.996 64.5013 165.522 71.9276 152.582 79.6276L149.259 81.621L131.081 63.4459C113.919 46.3653 112.746 45.2708 110.713 44.6064C107.508 43.551 103.95 43.7074 101.097 44.9972C99.0246 45.9353 96.0144 48.8277 72.5586 72.3185C43.3952 101.516 44.4898 100.226 44.4507 105.425C44.4507 110.975 43.7861 110.115 63.7627 130.166L81.5891 148.068L80.6509 149.709C75.4906 158.934 71.1513 167.963 67.7893 176.366C65.4828 182.151 61.7689 193.369 60.4007 198.645L59.697 201.381L34.6774 201.577L9.6579 201.772L7.4296 202.867C4.88855 204.117 2.69934 206.345 1.48746 208.964L0.666504 210.762V250.044V289.325L1.76111 291.553C3.01209 294.094 5.24039 296.283 7.85962 297.494C9.61881 298.315 10.0488 298.315 34.8729 298.432L60.0879 298.55L61.7689 304.452C65.8346 318.718 73.4968 336.659 80.4163 347.915L82.1364 350.691L79.9081 353.036C78.6962 354.326 72.9104 360.228 67.1247 366.13C43.2779 390.324 44.4507 388.878 44.4507 394.467C44.4898 396.93 44.6853 397.985 45.3889 399.548C46.1317 401.112 51.6438 406.858 72.5586 427.769C90.5414 445.748 99.3373 454.269 100.471 454.816C103.989 456.575 108.172 456.653 111.808 455.012C112.707 454.582 119.939 447.664 131.237 436.407L149.259 418.505L153.716 421.046C166.538 428.355 181.511 434.648 195.819 438.752L202.152 440.589L202.269 465.8C202.387 490.619 202.387 491.049 203.208 492.808C204.419 495.427 206.609 497.655 209.15 498.906L211.378 500H250.666H289.955L292.183 498.906C294.724 497.655 296.914 495.427 298.125 492.808C298.946 491.049 298.946 490.619 299.064 465.956L299.181 440.863L301.605 440.198C317.555 435.86 333.583 429.176 347.969 420.929L352.426 418.388L370.252 436.368C390.346 456.653 389.76 456.184 395.115 456.184C397.578 456.184 398.673 455.989 400.197 455.285C403.051 453.956 454.537 402.441 455.944 399.548C457.273 396.773 457.273 391.731 455.944 389.191C455.358 388.018 449.142 381.491 437.101 369.413L419.118 351.433L421.308 347.72C424.631 342.17 430.494 329.975 433.348 322.744C435.928 316.256 439.134 306.562 440.463 301.364L441.206 298.55L466.421 298.432C491.284 298.315 491.714 298.315 493.473 297.494C496.093 296.283 498.321 294.094 499.572 291.553L500.666 289.325V250.044V210.762L499.572 208.534C498.321 205.993 496.093 203.805 493.473 202.593C491.714 201.772 491.284 201.772 466.616 201.655L441.519 201.538L441.089 199.818C437.531 185.747 430.143 167.806 421.933 153.501L419.157 148.654L437.297 130.44C457.625 110.076 456.921 110.975 456.843 105.425C456.804 100.187 457.742 101.281 428.618 72.1231C405.358 48.8668 402.308 45.9353 400.236 44.9972C397.383 43.7074 393.825 43.551 390.62 44.6064C388.587 45.2708 387.414 46.3653 370.291 63.4459L352.074 81.5819L347.617 79.0023C334.873 71.6931 318.649 64.9312 303.95 60.8272L299.181 59.4982L299.064 34.2876C298.946 9.38969 298.946 9.03791 298.086 7.23994C296.914 4.66025 294.373 2.08056 291.988 1.02523L289.955 0.0871647L251.253 0.00899222C220.799 -0.030094 212.199 0.0480785 210.987 0.438941ZM256.335 177.382C279.009 179.298 298.829 190.945 311.456 209.785C314.232 213.928 318.258 222.097 319.861 226.905C328.462 252.428 322.011 280.883 303.247 300.426C281.472 323.096 247.969 329.35 219.783 316.06C204.459 308.79 192.574 297.103 185.186 281.899C180.885 273.144 178.813 265.404 177.953 255.32C177.406 248.988 177.914 241.835 179.322 234.995C185.811 203.805 212.512 180.157 244.412 177.382C249.767 176.913 251.097 176.913 256.335 177.382Z" fill="#193CB8"/>
</svg>
