<svg width="33" height="32" viewBox="0 0 33 32" fill="none" xmlns="http://www.w3.org/2000/svg">
<mask id="mask0_8_86" style="mask-type:alpha" maskUnits="userSpaceOnUse" x="0" y="0" width="33" height="32">
<rect x="0.5" width="32" height="32" fill="#D9D9D9"/>
</mask>
<g mask="url(#mask0_8_86)">
<path d="M15.5 18.3332H17.5V14.3332H21.5V12.3332H17.5V8.33317H15.5V12.3332H11.5V14.3332H15.5V18.3332ZM16.5 26.6998C19.4555 24.0109 21.6389 21.5721 23.05 19.3832C24.4611 17.1943 25.1666 15.2665 25.1666 13.5998C25.1666 10.9823 24.3301 8.83895 22.657 7.16984C20.9839 5.50095 18.9315 4.6665 16.5 4.6665C14.0684 4.6665 12.0161 5.50095 10.343 7.16984C8.66987 8.83895 7.83331 10.9823 7.83331 13.5998C7.83331 15.2665 8.55554 17.1943 9.99998 19.3832C11.4444 21.5721 13.6111 24.0109 16.5 26.6998ZM16.5 29.3332C12.9222 26.2887 10.25 23.4609 8.48331 20.8498C6.71665 18.2387 5.83331 15.8221 5.83331 13.5998C5.83331 10.2665 6.90554 7.61095 9.04998 5.63317C11.1944 3.65539 13.6778 2.6665 16.5 2.6665C19.3222 2.6665 21.8055 3.65539 23.95 5.63317C26.0944 7.61095 27.1666 10.2665 27.1666 13.5998C27.1666 15.8221 26.2833 18.2387 24.5166 20.8498C22.75 23.4609 20.0778 26.2887 16.5 29.3332Z" fill="white"/>
</g>
</svg>
