<svg width="616" height="176" viewBox="0 0 616 176" fill="none" xmlns="http://www.w3.org/2000/svg">
<g clip-path="url(#clip0_647_8)">
<path fill-rule="evenodd" clip-rule="evenodd" d="M249.468 66.0907H264.948V133.035H249.468V66.0907ZM257.016 55.0827C251.899 55.0827 247.805 51.2427 247.805 46.2507C247.805 41.1307 251.899 37.2907 257.016 37.2907C262.133 37.2907 266.227 41.1307 266.227 46.2507C266.227 51.2427 262.133 55.0827 257.016 55.0827ZM307.037 134.187C293.732 134.187 286.824 127.147 286.824 114.347V77.7387H277.869V66.0907H286.824V51.3707H302.304V66.0907H317.016V77.7387H302.304V112.939C302.304 118.955 304.99 121.515 309.98 121.515C312.922 121.515 315.481 121.131 317.528 120.235V132.523C315.097 133.419 311.771 134.187 307.037 134.187ZM332.368 66.0907H347.848V133.035H332.368V66.0907ZM339.916 55.0827C334.799 55.0827 330.705 51.2427 330.705 46.2507C330.705 41.1307 334.799 37.2907 339.916 37.2907C345.033 37.2907 349.127 41.1307 349.127 46.2507C349.127 51.2427 345.033 55.0827 339.916 55.0827ZM367.549 35.1147H383.029V133.035H367.549V35.1147ZM402.731 66.0907H418.21V133.035H402.731V66.0907ZM410.279 55.0827C405.161 55.0827 401.067 51.2427 401.067 46.2507C401.067 41.1307 405.161 37.2907 410.279 37.2907C415.396 37.2907 419.49 41.1307 419.49 46.2507C419.49 51.2427 415.396 55.0827 410.279 55.0827ZM459.916 134.315C446.611 134.315 436.888 126.763 436.888 108.971V66.0907H452.368V107.179C452.368 117.419 456.462 121.899 465.545 121.899C473.861 121.899 481.153 116.523 481.153 105.899V66.0907H496.633V133.035H481.153V122.539C477.699 129.067 470.791 134.315 459.916 134.315ZM515.439 66.0907H530.919V76.3307C534.117 70.0587 541.409 64.6827 551.26 64.6827C559.959 64.6827 566.74 68.3947 570.194 76.7147C575.311 68.3947 584.522 64.6827 592.838 64.6827C605.119 64.6827 615.098 72.2347 615.098 90.6667V133.035H599.618V91.6907C599.618 81.8347 595.396 77.6107 587.721 77.6107C580.045 77.6107 573.008 82.7308 573.008 92.9708V133.035H557.529V91.6907C557.529 81.8347 553.307 77.6107 545.631 77.6107C537.955 77.6107 530.919 82.7308 530.919 92.9708V133.035H515.439V66.0907Z" fill="#69B544"/>
<path fill-rule="evenodd" clip-rule="evenodd" d="M0 80.7467C0 124.427 33.6888 159.984 75.7732 161.472L76.093 16.7947L76.125 0C65.5653 0.32 55.5226 2.79467 46.4074 7.008C19.0512 19.632 0 47.8933 0 80.7467Z" fill="#69B544"/>
<path fill-rule="evenodd" clip-rule="evenodd" d="M75.1924 14.0906C74.4461 14.0906 73.6999 14.1226 72.9536 14.1492L72.6284 175.621C73.4813 175.659 74.3342 175.701 75.1924 175.701C115.72 175.701 148.572 139.52 148.572 94.8906C148.572 50.2612 115.72 14.0906 75.1924 14.0906Z" fill="#69B544"/>
<path fill-rule="evenodd" clip-rule="evenodd" d="M67.6548 144.112H85.6986V66.7414H67.6548V144.112ZM67.6548 55.1467H85.6986V35.8027H67.6548V55.1467Z" fill="white"/>
</g>
<defs>
<clipPath id="clip0_647_8">
<rect width="615.098" height="175.701" fill="white"/>
</clipPath>
</defs>
</svg>
