<svg width="156" height="30" viewBox="0 0 156 30" fill="none" xmlns="http://www.w3.org/2000/svg">
<g clip-path="url(#clip0_5_102)">
<path d="M70.31 15.11C70.31 21.01 66.71 23.79 62.22 23.79H59.47V20.25H62.01C64.71 20.25 66.53 18.79 66.53 15.11C66.53 11.47 64.82 9.64997 61.93 9.64997C59.14 9.64997 57.15 11.36 57.15 15.04V29.82H53.4V6.56997H57.15V8.56997H57.68C58.2648 7.79482 59.0264 7.17073 59.9014 6.74976C60.7764 6.32879 61.7394 6.12314 62.71 6.14997C66.85 6.14997 70.31 9.14997 70.31 15.11ZM45.68 13.57L43.18 13.32C41.21 13.14 40.18 12.61 40.18 11.47C40.18 10.11 41.5 9.31997 43.39 9.31997C45.35 9.31997 46.6 10.25 46.71 11.58H50.31C50.17 8.21997 47.57 6.14997 43.43 6.14997C39.25 6.14997 36.43 8.35997 36.43 11.61C36.43 14.32 38.14 16.07 42.03 16.47L44.57 16.72C46.1 16.86 47.14 17.18 47.14 18.64C47.14 19.97 46.18 20.93 43.64 20.93C41.31 20.93 40.16 19.87 39.75 18.45H35.85C36.25 21.7 38.97 24.22 43.65 24.22C48.03 24.22 50.89 21.89 50.89 18.47C50.89 15.43 48.89 13.9 45.68 13.57ZM84.83 18.45C84.24 19.8 82.83 20.82 80.84 20.82C78.09 20.82 76.06 19.04 76.06 15.18C76.06 11.5 77.95 9.46997 80.88 9.46997C83.48 9.46997 84.98 11.04 85.13 13.39H78.38V16.11H88.8V14.32C88.8 9.35997 85.52 6.14997 80.84 6.14997C76.49 6.14997 72.31 9.10997 72.31 15.18C72.31 21.25 76.49 24.22 80.84 24.22C82.5883 24.2774 84.304 23.737 85.7039 22.688C87.1038 21.639 88.1042 20.1441 88.54 18.45H84.83ZM25.73 6.14997C21.63 6.14997 18.56 8.28997 18.2 11.57H22.24C22.52 10.36 23.64 9.46997 25.74 9.46997C28.45 9.46997 29.34 10.9 29.34 12.65V18.54C27.81 20.29 26.02 21.11 24.24 21.11C22.38 21.11 21.1 20.21 21.1 18.61C21.1 17.07 22.1 16.11 24.02 16.11H27.02V13.4H23.92C19.63 13.4 17.24 15.54 17.24 18.82C17.24 21.89 19.56 24.22 23.38 24.22C25.3466 24.1834 27.2496 23.5175 28.81 22.32H29.34V23.79H33.09V12.29C33.09 8.03997 30.2 6.14997 25.74 6.14997H25.73ZM0.299988 23.79H4.04999V0.219971H0.309988V23.79H0.299988ZM16.05 6.56997H11.48L6.01999 13.75V16L11.62 23.78H16.26L9.69999 14.87L16.06 6.58997L16.05 6.56997ZM151.55 6.56997L148.48 13.39C147.787 14.7734 147.228 16.22 146.81 17.71H146.27C146.06 16.64 145.31 15.07 144.56 13.43L141.49 6.56997H137.35L144.55 22.04L140.99 29.82H144.99L155.69 6.56997H151.55ZM136.52 6.56997H131.95L126.49 13.75V16L132.09 23.78H136.73L130.16 14.86L136.52 6.56997ZM113.05 13.57L110.55 13.32C108.59 13.14 107.55 12.61 107.55 11.47C107.55 10.11 108.87 9.31997 110.76 9.31997C112.73 9.31997 113.98 10.25 114.08 11.57H117.68C117.55 8.21997 114.94 6.14997 110.8 6.14997C106.62 6.14997 103.8 8.34997 103.8 11.61C103.8 14.32 105.52 16.07 109.4 16.46L111.94 16.71C113.48 16.86 114.51 17.18 114.51 18.64C114.51 19.96 113.55 20.93 111.01 20.93C108.68 20.93 107.53 19.87 107.12 18.45H103.22C103.62 21.69 106.34 24.21 111.02 24.21C115.4 24.21 118.26 21.89 118.26 18.46C118.26 15.43 116.26 13.89 113.05 13.57ZM120.77 23.78H124.52V0.219971H120.77V23.79V23.78ZM96.06 8.57997H95.52V6.57997H91.77V23.78H95.52V14.78C95.52 11.72 96.94 9.92997 99.73 9.92997H102.1V6.14997H100.73C98.13 6.14997 97.03 7.11997 96.05 8.56997L96.06 8.57997Z" fill="#00A88E"/>
</g>
<defs>
<clipPath id="clip0_5_102">
<rect width="156" height="30" fill="white"/>
</clipPath>
</defs>
</svg>
